# xmcd
#
# Track frame offsets:
#	150
#	19192
#	31347
#	42517
#	55509
#	72627
#	88262
#	107065
#	120776
#	138235
#	151382
#	160446
#	170025
#	188324
#	205912
#	221459
#	237813
#
# Disc length: 3421 seconds
#
# Revision: 1
# Processed by: cddbd v1.5.2PL0 Copyright (c) Steve Scherf et al.
# Submitted via: audiograbber 1.83.01
#
DISCID=e40d5b11
DTITLE=Various Artist - Country Heat Christmas 3
DYEAR=2008
DGENRE=Country
TTITLE0=Brad Paisley - Santa Looked A Lot Like Daddy
TTITLE1=Brooks and Dunn - Hangin' Round The Mistletoe
TTITLE2=Paul Brandt - Christmas Convoy
TTITLE3=Beverly Mahood - Let It Snow! Let It Snow! Let It Snow!
TTITLE4=Martina McBride - What Child Is This
TTITLE5=Kellie Pickler - Santa Baby
TTITLE6=Lonestar - Santa Claus Is COmin' To Town
TTITLE7=Patricia Conroy - It's Almost Christmas
TTITLE8=Carolyn Dawn Johnson - I Wouldn't Want Christmas (Any Other Way)
TTITLE9=Diamond Rio - Walking In A Winter Wonderland
TTITLE10=Michelle Wright - I Know Santa's Been Here
TTITLE11=Tracy Lawrence - All Wrapped Up In Christmas
TTITLE12=Montgomery Gentry - Merry Christmas From The Family
TTITLE13=Sara Evans - I'll Be Home For Christmas
TTITLE14=Terri Clark - O Little Town Of Bethlehem
TTITLE15=Kenny Chesney - Christmas In Dixie
TTITLE16=Carrie Underwood - Do You Hear What I Hear
EXTD=
EXTT0=
EXTT1=
EXTT2=
EXTT3=
EXTT4=
EXTT5=
EXTT6=
EXTT7=
EXTT8=
EXTT9=
EXTT10=
EXTT11=
EXTT12=
EXTT13=
EXTT14=
EXTT15=
EXTT16=
PLAYORDER=
